<?xml version="1.0" encoding="utf-8"?>
<!-- Generator: Adobe Illustrator 16.0.0, SVG Export Plug-In . SVG Version: 6.00 Build 0)  -->
<!DOCTYPE svg PUBLIC "-//W3C//DTD SVG 1.1//EN" "http://www.w3.org/Graphics/SVG/1.1/DTD/svg11.dtd">
<svg version="1.1" id="Layer_1" xmlns="http://www.w3.org/2000/svg" xmlns:xlink="http://www.w3.org/1999/xlink" x="0px" y="0px"
	 width="425px" height="54px" viewBox="0 0 425 54" enable-background="new 0 0 425 54" xml:space="preserve">
<g>
	<g>
		<path fill="#122C33" d="M106.5,34.9c0-7.9,5.1-11.6,12.7-11.6c2.4,0,5.1,0.5,6.7,1.1v7h-4.8v-3.2c-0.6-0.2-1.6-0.3-2.4-0.3
			c-3.9,0-6.3,2.4-6.3,6.8v3c0,4.3,2.3,7,6.4,7h1.2c1.9,0,4.6-0.6,5.6-1.1h0.3v4.5c-1.2,0.5-3.9,1.2-5.8,1.2h-1.6
			c-8.1,0-12-4.5-12-11.6V34.9z"/>
		<path fill="#122C33" d="M128.7,39.5c0-5.6,3.2-9.3,9.6-9.3c6.8,0,9.6,3.7,9.6,9.3c0,6.1-3.2,9.8-9.6,9.8
			C131.5,49.4,128.7,45.6,128.7,39.5z M142,39.6c0-3-0.9-4.8-3.8-4.8c-2.9,0-3.7,1.8-3.7,4.8c0,3,0.8,5.2,3.7,5.2
			C141.2,44.8,142,42.6,142,39.6z"/>
		<path fill="#122C33" d="M151.3,30.5h5.8v11.6c0,2.1,1,2.7,2.1,2.7c1.4,0,2.5-1.2,3.5-2.1l0.8-0.8V30.5h5.9v18.6h-5.9v-3.3l-1,1.1
			c-1.4,1.5-2.9,2.5-5.6,2.5c-3.3,0-5.6-1.6-5.6-6.3V30.5z"/>
		<path fill="#122C33" d="M174,30.5h5.8v2.8l0.3-0.4c1.2-1.6,2.9-2.6,4.8-2.6h1.8v4.9h-2c-1.4,0-2.8,0.3-3.9,1c-0.1,0-1,0.8-1.1,0.9
			v12H174V30.5z"/>
		<path fill="#122C33" d="M190.7,34.9h-2.4v-4.4h2.4v-4.6h5.8v4.6h4.7v4.4h-4.7v6.3c0,2.7,0.8,3.5,3.3,3.5h1.8v4.4h-3.9
			c-4.5,0-7.1-2.2-7.1-6.9V34.9z"/>
		<path fill="#122C33" d="M212.6,34.9c0-7.9,5.1-11.6,12.7-11.6c2.4,0,5.1,0.5,6.7,1.1v7h-4.8v-3.2c-0.6-0.2-1.6-0.3-2.4-0.3
			c-3.9,0-6.3,2.4-6.3,6.8v3c0,4.3,2.3,7,6.4,7h1.2c1.9,0,4.6-0.6,5.6-1.1h0.3v4.5c-1.2,0.5-3.9,1.2-5.8,1.2h-1.6
			c-8.1,0-12-4.5-12-11.6V34.9z"/>
		<path fill="#122C33" d="M236.9,34.9h-2.7v-4.4h8.5v18.6h-5.8V34.9z M236.9,23.6h5.8v4.6h-5.8V23.6z"/>
		<path fill="#122C33" d="M247.4,30.5h5.8v2.8l0.3-0.4c1.2-1.6,2.9-2.6,4.8-2.6h1.8v4.9h-2c-1.4,0-2.8,0.3-3.9,1
			c-0.1,0-1,0.8-1.1,0.9v12h-5.8V30.5z"/>
		<path fill="#122C33" d="M261.5,38.4c0-5.5,4.3-8.2,9.4-8.2c2.4,0,5.1,0.5,6.9,1.4v5.7h-4.7v-2.2c-0.7-0.3-1.5-0.4-2.2-0.4
			c-2,0-3.6,1.1-3.6,3.6v2.5c0,2.8,1.4,3.9,4,3.9c2,0,4.1-0.4,5.8-0.9h0.3v4.3c-1.7,0.7-4.5,1.2-6.6,1.2c-5.4,0-9.3-2.1-9.3-7.8
			V38.4z"/>
		<path fill="#122C33" d="M281.5,30.5h5.8v11.6c0,2.1,1,2.7,2.1,2.7c1.4,0,2.5-1.2,3.5-2.1l0.8-0.8V30.5h5.9v18.6h-5.9v-3.3l-1,1.1
			c-1.4,1.5-2.9,2.5-5.6,2.5c-3.3,0-5.6-1.6-5.6-6.3V30.5z"/>
		<path fill="#122C33" d="M304.7,34.9h-2.7v-4.4h8.5v18.6h-5.8V34.9z M304.7,23.6h5.8v4.6h-5.8V23.6z"/>
		<path fill="#122C33" d="M315.5,34.9h-2.4v-4.4h2.4v-4.6h5.8v4.6h4.7v4.4h-4.7v6.3c0,2.7,0.8,3.5,3.3,3.5h1.8v4.4h-3.9
			c-4.5,0-7.1-2.2-7.1-6.9V34.9z"/>
	</g>
	<g>
		<g>
			<defs>
				<path id="SVGID_31_" d="M30.9,46.2c27.8,13.6,60-2.5,60-2.5C55.2-6.3,0,11.2,0,11.2S-0.5,30.9,30.9,46.2"/>
			</defs>
			<use xlink:href="#SVGID_31_"  overflow="visible" fill="#C0CF03"/>
			<clipPath id="SVGID_1_">
				<use xlink:href="#SVGID_31_"  overflow="visible"/>
			</clipPath>
			<polygon clip-path="url(#SVGID_1_)" fill="#C0CF03" points="-13.1,42 8.9,-19.7 106.2,5.6 84.1,67.2 			"/>
		</g>
		<g opacity="0.8">
			<defs>
				<path id="SVGID_30_" opacity="0.8" d="M48.8,35.1c14.5,15.9,42.1,8.1,42.1,8.1C83-3.9,39.2,1.1,39.2,1.1S32.3,17.1,48.8,35.1"/>
			</defs>
			<use xlink:href="#SVGID_30_"  overflow="visible" fill="#BA0947"/>
			<clipPath id="SVGID_2_">
				<use xlink:href="#SVGID_30_"  overflow="visible"/>
			</clipPath>
			<polygon clip-path="url(#SVGID_2_)" fill="#BA0947" points="19.9,24.1 55.7,-22.8 114.1,14.4 78.3,61.3 			"/>
		</g>
		<g>
			<defs>
				<path id="SVGID_29_" d="M75.4,13.4c0.3,9,11.1,14.1,11.1,14.1C96.9,10.4,81.7,0,81.7,0S75.1,3.2,75.4,13.4"/>
			</defs>
			<clipPath id="SVGID_3_">
				<use xlink:href="#SVGID_29_"  overflow="visible"/>
			</clipPath>
			
				<radialGradient id="SVGID_4_" cx="95.6812" cy="284.3086" r="0.9997" gradientTransform="matrix(11.9396 -2.5111 -4.6145 -15.3929 251.8242 4624.7188)" gradientUnits="userSpaceOnUse">
				<stop  offset="0" style="stop-color:#FFD731"/>
				<stop  offset="0.1384" style="stop-color:#FFD731"/>
				<stop  offset="0.7317" style="stop-color:#FABF33"/>
				<stop  offset="1" style="stop-color:#F8B334"/>
			</radialGradient>
			<polygon clip-path="url(#SVGID_3_)" fill="url(#SVGID_4_)" points="69.2,2 93.4,-3.1 101.7,24.7 77.6,29.8 			"/>
		</g>
	</g>
	<g>
		<g>
			<defs>
				<path id="SVGID_28_" d="M373.7,41.1C392.1,29,391.7,0.7,391.7,0.7c-45.9,1.1-52.2,45-52.2,45s10.6,7.3,27.7-1
					C369.4,43.7,371.5,42.5,373.7,41.1"/>
			</defs>
			<use xlink:href="#SVGID_28_"  overflow="visible" fill="#EC751A"/>
			<clipPath id="SVGID_5_">
				<use xlink:href="#SVGID_28_"  overflow="visible"/>
			</clipPath>
			<polygon clip-path="url(#SVGID_5_)" fill="#EC751A" points="404.3,26.9 342.6,62.7 323.6,12.5 385.4,-23.3 			"/>
		</g>
		<g opacity="0.9">
			<defs>
				<path id="SVGID_27_" opacity="0.9" d="M366.4,23.5c-17.1,2.3-26.4,22.3-26.4,22.3c32.7,14.8,52.1-14,52.1-14s-5-8.7-19.9-8.7
					C370.4,23.1,368.4,23.3,366.4,23.5"/>
			</defs>
			<clipPath id="SVGID_6_">
				<use xlink:href="#SVGID_27_"  overflow="visible"/>
			</clipPath>
			
				<radialGradient id="SVGID_7_" cx="102.7002" cy="342.248" r="1" gradientTransform="matrix(22.0873 -1.7083 1.7083 -19.5222 -2474.0469 6888.7188)" gradientUnits="userSpaceOnUse">
				<stop  offset="0" style="stop-color:#FFD731"/>
				<stop  offset="0.1384" style="stop-color:#FFD731"/>
				<stop  offset="0.7317" style="stop-color:#FABF33"/>
				<stop  offset="1" style="stop-color:#F8B334"/>
			</radialGradient>
			<polygon clip-path="url(#SVGID_6_)" fill="url(#SVGID_7_)" points="339.9,23.1 395.7,18.8 392,60.7 336.3,65 			"/>
		</g>
		<g>
			<defs>
				<path id="SVGID_26_" d="M406.5,4c-8.2,3.8-8.5,15.8-8.5,15.8c19.8,2.8,23.3-15.3,23.3-15.3S415.7-0.3,406.5,4"/>
			</defs>
			<use xlink:href="#SVGID_26_"  overflow="visible" fill="#A3D7DB"/>
			<clipPath id="SVGID_8_">
				<use xlink:href="#SVGID_26_"  overflow="visible"/>
			</clipPath>
			<polygon clip-path="url(#SVGID_8_)" fill="#A3D7DB" points="414.5,-6.1 428.7,14 406.6,32.7 392.3,12.5 			"/>
		</g>
	</g>
</g>
</svg>
