<?xml version="1.0" encoding="utf-8"?>
<!-- Generator: Adobe Illustrator 17.1.0, SVG Export Plug-In . SVG Version: 6.00 Build 0)  -->
<!DOCTYPE svg PUBLIC "-//W3C//DTD SVG 1.1//EN" "http://www.w3.org/Graphics/SVG/1.1/DTD/svg11.dtd">
<svg version="1.1" id="Calque_1" xmlns="http://www.w3.org/2000/svg" xmlns:xlink="http://www.w3.org/1999/xlink" x="0px" y="0px"
	 viewBox="0 0 222 30" enable-background="new 0 0 222 30" xml:space="preserve">
<g>
	<path fill="#122C33" d="M0.4,13.6C0.4,5.7,5.6,2,13.2,2c2.4,0,5.1,0.5,6.7,1.1v7h-4.8V7c-0.6-0.2-1.6-0.3-2.4-0.3
		c-3.9,0-6.3,2.4-6.3,6.8v3c0,4.3,2.3,7,6.4,7H14c1.9,0,4.6-0.6,5.6-1.1h0.3v4.5c-1.2,0.5-3.9,1.2-5.8,1.2h-1.6
		c-8.1,0-12-4.5-12-11.6V13.6z"/>
	<path fill="#122C33" d="M22.6,18.2c0-5.6,3.2-9.3,9.6-9.3c6.8,0,9.6,3.7,9.6,9.3c0,6.1-3.2,9.8-9.6,9.8
		C25.5,28.1,22.6,24.3,22.6,18.2z M36,18.3c0-3-0.9-4.8-3.8-4.8c-2.9,0-3.7,1.8-3.7,4.8c0,3,0.8,5.2,3.7,5.2
		C35.1,23.5,36,21.3,36,18.3z"/>
	<path fill="#122C33" d="M45.2,9.2h5.8v11.6c0,2.1,1,2.7,2.1,2.7c1.4,0,2.5-1.2,3.5-2.1l0.8-0.8V9.2h5.9v18.6h-5.9v-3.3l-1,1.1
		c-1.4,1.5-2.9,2.5-5.6,2.5c-3.3,0-5.6-1.6-5.6-6.3V9.2z"/>
	<path fill="#122C33" d="M68,9.2h5.8V12l0.3-0.4C75.3,10.1,77,9,78.9,9h1.8V14h-2c-1.4,0-2.8,0.3-3.9,1c-0.1,0-1,0.8-1.1,0.9v12H68
		V9.2z"/>
	<path fill="#122C33" d="M84.6,13.6h-2.4V9.2h2.4V4.6h5.8v4.6h4.7v4.4h-4.7v6.3c0,2.7,0.8,3.5,3.3,3.5h1.8v4.4h-3.9
		c-4.5,0-7.1-2.2-7.1-6.9V13.6z"/>
	<path fill="#122C33" d="M106.5,13.6c0-7.9,5.1-11.6,12.7-11.6c2.4,0,5.1,0.5,6.7,1.1v7h-4.8V7c-0.6-0.2-1.6-0.3-2.4-0.3
		c-3.9,0-6.3,2.4-6.3,6.8v3c0,4.3,2.3,7,6.4,7h1.2c1.9,0,4.6-0.6,5.6-1.1h0.3v4.5c-1.2,0.5-3.9,1.2-5.8,1.2h-1.6
		c-8.1,0-12-4.5-12-11.6V13.6z"/>
	<path fill="#122C33" d="M130.8,13.6h-2.7V9.2h8.5v18.6h-5.8V13.6z M130.8,2.3h5.8v4.6h-5.8V2.3z"/>
	<path fill="#122C33" d="M141.3,9.2h5.8V12l0.3-0.4c1.2-1.6,2.9-2.6,4.8-2.6h1.8V14h-2c-1.4,0-2.8,0.3-3.9,1c-0.1,0-1,0.8-1.1,0.9
		v12h-5.8V9.2z"/>
	<path fill="#122C33" d="M155.5,17.1c0-5.5,4.3-8.2,9.4-8.2c2.4,0,5.1,0.5,6.9,1.4v5.7h-4.7v-2.2c-0.7-0.3-1.5-0.4-2.2-0.4
		c-2,0-3.6,1.1-3.6,3.6v2.5c0,2.8,1.4,3.9,4,3.9c2,0,4.1-0.4,5.8-0.9h0.3v4.3c-1.7,0.7-4.5,1.2-6.6,1.2c-5.4,0-9.3-2.1-9.3-7.8V17.1
		z"/>
	<path fill="#122C33" d="M175.4,9.2h5.8v11.6c0,2.1,1,2.7,2.1,2.7c1.4,0,2.5-1.2,3.5-2.1l0.8-0.8V9.2h5.9v18.6h-5.9v-3.3l-1,1.1
		c-1.4,1.5-2.9,2.5-5.6,2.5c-3.3,0-5.6-1.6-5.6-6.3V9.2z"/>
	<path fill="#122C33" d="M198.6,13.6H196V9.2h8.5v18.6h-5.8V13.6z M198.6,2.3h5.8v4.6h-5.8V2.3z"/>
	<path fill="#122C33" d="M209.4,13.6H207V9.2h2.4V4.6h5.8v4.6h4.7v4.4h-4.7v6.3c0,2.7,0.8,3.5,3.3,3.5h1.8v4.4h-3.9
		c-4.5,0-7.1-2.2-7.1-6.9V13.6z"/>
</g>
</svg>
