<?xml version="1.0" encoding="utf-8"?>
<!-- Generator: Adobe Illustrator 17.1.0, SVG Export Plug-In . SVG Version: 6.00 Build 0)  -->
<!DOCTYPE svg PUBLIC "-//W3C//DTD SVG 1.1//EN" "http://www.w3.org/Graphics/SVG/1.1/DTD/svg11.dtd">
<svg version="1.1" xmlns="http://www.w3.org/2000/svg" xmlns:xlink="http://www.w3.org/1999/xlink" x="0px" y="0px"
	 viewBox="0 0 96 58" enable-background="new 0 0 96 58" xml:space="preserve">
<g id="Calque_1" display="none">
	<g display="inline">
		<g>
			<defs>
				<path id="SVGID_5_" d="M35.5,49.4c27.8,13.6,60-2.5,60-2.5C59.8-3.1,4.5,14.4,4.5,14.4S4,34,35.5,49.4"/>
			</defs>
			<use xlink:href="#SVGID_5_"  overflow="visible" fill="#C0CF03"/>
			<clipPath id="SVGID_1_">
				<use xlink:href="#SVGID_5_"  overflow="visible"/>
			</clipPath>
			<polygon clip-path="url(#SVGID_1_)" fill="#C0CF03" points="-8.6,45.1 13.5,-16.5 110.7,8.7 88.7,70.3 			"/>
		</g>
		<g opacity="0.8">
			<defs>
				<path id="SVGID_4_" opacity="0.8" d="M53.3,38.3c14.5,15.9,42.1,8.1,42.1,8.1C87.6-0.8,43.7,4.2,43.7,4.2S36.8,20.3,53.3,38.3"
					/>
			</defs>
			<use xlink:href="#SVGID_4_"  overflow="visible" fill="#BA0947"/>
			<clipPath id="SVGID_2_">
				<use xlink:href="#SVGID_4_"  overflow="visible"/>
			</clipPath>
			<polygon clip-path="url(#SVGID_2_)" fill="#BA0947" points="24.4,27.3 60.2,-19.6 118.6,17.6 82.9,64.5 			"/>
		</g>
		<g>
			<defs>
				<path id="SVGID_114_" d="M79.9,16.5c0.3,9,11.1,14.1,11.1,14.1c10.4-17.1-4.8-27.4-4.8-27.4S79.6,6.3,79.9,16.5"/>
			</defs>
			<clipPath id="SVGID_7_">
				<use xlink:href="#SVGID_114_"  overflow="visible"/>
			</clipPath>
			
				<radialGradient id="SVGID_8_" cx="-234.7043" cy="-8.0286" r="1" gradientTransform="matrix(11.9396 -2.5111 -4.6145 -15.3929 2852.0356 -701.6746)" gradientUnits="userSpaceOnUse">
				<stop  offset="0" style="stop-color:#FFD731"/>
				<stop  offset="0.1384" style="stop-color:#FFD731"/>
				<stop  offset="0.7317" style="stop-color:#FABF33"/>
				<stop  offset="1" style="stop-color:#F8B334"/>
			</radialGradient>
			<polygon clip-path="url(#SVGID_7_)" fill="url(#SVGID_8_)" points="73.8,5.2 97.9,0.1 106.2,27.9 82.1,32.9 			"/>
		</g>
	</g>
</g>
<g id="Calque_2">
	<g>
		<g>
			<defs>
				<path id="SVGID_3_" d="M35.1,44.8C53.5,32.7,53.1,4.4,53.1,4.4C7.2,5.5,1,49.4,1,49.4s10.6,7.3,27.7-1
					C30.7,47.4,32.8,46.2,35.1,44.8"/>
			</defs>
			<use xlink:href="#SVGID_3_"  overflow="visible" fill="#EC751A"/>
			<clipPath id="SVGID_9_">
				<use xlink:href="#SVGID_3_"  overflow="visible"/>
			</clipPath>
			<polygon clip-path="url(#SVGID_9_)" fill="#EC751A" points="65.7,30.6 4,66.4 -15,16.2 46.7,-19.6 			"/>
		</g>
		<g opacity="0.9">
			<defs>
				<path id="SVGID_111_" opacity="0.9" d="M27.8,27.2C10.6,29.5,1.3,49.6,1.3,49.6c32.7,14.8,52.1-14,52.1-14s-5-8.7-19.9-8.7
					C31.7,26.8,29.8,27,27.8,27.2"/>
			</defs>
			<clipPath id="SVGID_10_">
				<use xlink:href="#SVGID_111_"  overflow="visible"/>
			</clipPath>
			
				<radialGradient id="SVGID_11_" cx="-247.595" cy="57.0261" r="1.0005" gradientTransform="matrix(22.0873 -1.7083 1.7083 -19.5222 5411.6377 725.8667)" gradientUnits="userSpaceOnUse">
				<stop  offset="0" style="stop-color:#FFD731"/>
				<stop  offset="0.1384" style="stop-color:#FFD731"/>
				<stop  offset="0.7317" style="stop-color:#FABF33"/>
				<stop  offset="1" style="stop-color:#F8B334"/>
			</radialGradient>
			<polygon clip-path="url(#SVGID_10_)" fill="url(#SVGID_11_)" points="1.3,26.8 57,22.5 53.4,64.4 -2.4,68.7 			"/>
		</g>
		<g>
			<defs>
				<path id="SVGID_6_" d="M67.9,7.7c-8.2,3.8-8.5,15.8-8.5,15.8C79.1,26.3,82.6,8.2,82.6,8.2S77.1,3.4,67.9,7.7"/>
			</defs>
			<use xlink:href="#SVGID_6_"  overflow="visible" fill="#A3D7DB"/>
			<clipPath id="SVGID_12_">
				<use xlink:href="#SVGID_6_"  overflow="visible"/>
			</clipPath>
			<polygon clip-path="url(#SVGID_12_)" fill="#A3D7DB" points="75.9,-2.4 90.1,17.7 67.9,36.4 53.7,16.2 			"/>
		</g>
	</g>
</g>
</svg>
