<?xml version="1.0" encoding="utf-8"?>
<!-- Generator: Adobe Illustrator 16.0.0, SVG Export Plug-In . SVG Version: 6.00 Build 0)  -->
<!DOCTYPE svg PUBLIC "-//W3C//DTD SVG 1.1//EN" "http://www.w3.org/Graphics/SVG/1.1/DTD/svg11.dtd">
<svg version="1.1" id="Layer_1" xmlns="http://www.w3.org/2000/svg" xmlns:xlink="http://www.w3.org/1999/xlink" x="0px" y="0px"
	 width="150px" height="150px" viewBox="0 0 150 150" enable-background="new 0 0 150 150" xml:space="preserve">
<g>
	
		<ellipse fill="none" stroke="#122C33" stroke-width="2" stroke-linecap="round" stroke-linejoin="round" stroke-miterlimit="10" cx="83" cy="53.8" rx="4" ry="4"/>
	
		<polyline fill="none" stroke="#122C33" stroke-width="2" stroke-linecap="round" stroke-linejoin="round" stroke-miterlimit="10" stroke-dasharray="4,4" points="
		75,147.5 81,62.8 85,62.8 90,128.6 	"/>
	
		<path fill="none" stroke="#122C33" stroke-width="2" stroke-linecap="round" stroke-linejoin="round" stroke-miterlimit="10" stroke-dasharray="4,4" d="
		M83,46.3c-1,0-4-3-4-5c0-2,1-38.9,4-38.9s4,36.9,4,38.9C87,43.4,84,46.3,83,46.3z"/>
	
		<path fill="none" stroke="#122C33" stroke-width="2" stroke-linecap="round" stroke-linejoin="round" stroke-miterlimit="10" stroke-dasharray="4,4" d="
		M76,57c0.5,0.9-0.3,5-2,6c-1.7,1-34.5,18.8-35.9,16.2C36.6,76.6,68.3,57,70,56C71.7,55,75.5,56.1,76,57z"/>
	
		<path fill="none" stroke="#122C33" stroke-width="2" stroke-linecap="round" stroke-linejoin="round" stroke-miterlimit="10" stroke-dasharray="4,4" d="
		M90,57c-0.5,0.9-0.7,5,1,6s34.5,18.8,35.9,16.2C128.4,76.6,96.7,57,95,56C93.3,55,90.5,56.1,90,57z"/>
</g>
<g>
	<path fill="none" stroke="#122C33" stroke-width="2" stroke-linecap="round" stroke-linejoin="round" stroke-miterlimit="10" d="
		M103,148h37.9c0,0,1-11.1-5.6-14.2c-6.7-3.1-14.1-6.5-14.1-6.5"/>
	<path fill="none" stroke="#122C33" stroke-width="2" stroke-linecap="round" stroke-linejoin="round" stroke-miterlimit="10" d="
		M99,130.2c0,0-2.8,0.5-9.4,3.6c-6.6,3.1-5.6,14.2-5.6,14.2"/>
	<g>
		<path fill="none" stroke="#122C33" stroke-width="2" stroke-linecap="round" stroke-linejoin="round" stroke-miterlimit="10" d="
			M116,130.2c6.9-2.6,12-10.1,12-19.4c0-11.5-7.6-20.8-17-20.8c-9.4,0-17,9.3-17,20.8c0,9.4,5,16.9,12,19.4"/>
	</g>
	<path fill="none" stroke="#122C33" stroke-width="2" stroke-linecap="round" stroke-linejoin="round" stroke-miterlimit="10" d="
		M95,108.3c3.2,0,7-7.9,7-7.9c2.3,1.9,5.7,3,9,3c3.3,0,5.7-1,8-3c0,0,4.6,7.9,8,7.9"/>
</g>
<g>
	<path fill="none" stroke="#122C33" stroke-width="2" stroke-linecap="round" stroke-linejoin="round" stroke-miterlimit="10" d="
		M19,127.5c-2.2,0.7-2.6,0.6-6.9,2.5c-3.7,1.6-3.2,7-3.2,7h17"/>
	<g>
		<path fill="none" stroke="#122C33" stroke-width="2" stroke-linecap="round" stroke-linejoin="round" stroke-miterlimit="10" d="
			M18,112.5c3,0.6,11.3-0.6,13-3.5"/>
		<path fill="none" stroke="#122C33" stroke-width="2" stroke-miterlimit="10" d="M37,114.5c0-6.6-3.4-12-10-12s-10,5.4-10,12
			s3.4,12,10,12S37,121.1,37,114.5z"/>
	</g>
</g>
<g>
	<path fill="none" stroke="#122C33" stroke-width="2" stroke-linecap="round" stroke-linejoin="round" stroke-miterlimit="10" d="
		M33,142.5v-4.6c0-3.1,2.1-5.9,5.1-6.9l12.9-4.8v-6.4"/>
	
		<line fill="none" stroke="#122C33" stroke-width="2" stroke-linecap="round" stroke-linejoin="round" stroke-miterlimit="10" x1="64" y1="126.2" x2="76" y2="130.1"/>
	<g>
		<path fill="none" stroke="#122C33" stroke-width="2" stroke-linecap="round" stroke-linejoin="round" stroke-miterlimit="10" d="
			M46,105.4c4.2,0.8,6.7-0.9,9-5l14,5"/>
		<path fill="none" stroke="#122C33" stroke-width="2" stroke-linecap="round" stroke-linejoin="round" stroke-miterlimit="10" d="
			M68,113c0.7-2,1-4.3,1-6.6c0-8.2-3.7-14.9-12-14.9s-12,6.7-12,14.9s3.7,14.9,12,14.9c3.5,0,6.2-1.2,8.1-3.2"/>
		<path fill="none" stroke="#122C33" stroke-width="2" stroke-linecap="round" stroke-linejoin="round" stroke-miterlimit="10" d="
			M68,113"/>
		<path fill="none" stroke="#122C33" stroke-width="2" stroke-linecap="round" stroke-linejoin="round" stroke-miterlimit="10" d="
			M65.1,118"/>
	</g>
</g>
<g>
	
		<path fill="#E9AF00" stroke="#122C33" stroke-width="2" stroke-linecap="round" stroke-linejoin="round" stroke-miterlimit="10" d="
		M28.7,35c2.4,5.6,7.9,9.5,14.3,9.5c8.6,0,15.5-6.9,15.5-15.5c0-8.6-6.9-15.5-15.5-15.5c-8.6,0-15.5,6.9-15.5,15.5
		C27.5,31.1,27.9,33.2,28.7,35"/>
	
		<line fill="none" stroke="#122C33" stroke-width="2" stroke-linecap="round" stroke-linejoin="round" stroke-miterlimit="10" x1="17" y1="29" x2="23" y2="29"/>
	
		<line fill="none" stroke="#122C33" stroke-width="2" stroke-linecap="round" stroke-linejoin="round" stroke-miterlimit="10" x1="63" y1="29" x2="69" y2="29"/>
	
		<line fill="none" stroke="#122C33" stroke-width="2" stroke-linecap="round" stroke-linejoin="round" stroke-miterlimit="10" x1="43" y1="3" x2="43" y2="9"/>
	
		<line fill="none" stroke="#122C33" stroke-width="2" stroke-linecap="round" stroke-linejoin="round" stroke-miterlimit="10" x1="43" y1="49" x2="43" y2="55"/>
	<g>
		
			<line fill="none" stroke="#122C33" stroke-width="2" stroke-linecap="round" stroke-linejoin="round" stroke-miterlimit="10" x1="26.1" y1="12" x2="29" y2="15"/>
		
			<line fill="none" stroke="#122C33" stroke-width="2" stroke-linecap="round" stroke-linejoin="round" stroke-miterlimit="10" x1="57" y1="43" x2="60.1" y2="46"/>
		
			<line fill="none" stroke="#122C33" stroke-width="2" stroke-linecap="round" stroke-linejoin="round" stroke-miterlimit="10" x1="60" y1="11.9" x2="57" y2="15"/>
		
			<line fill="none" stroke="#122C33" stroke-width="2" stroke-linecap="round" stroke-linejoin="round" stroke-miterlimit="10" x1="28.9" y1="43" x2="26" y2="46"/>
	</g>
</g>
</svg>
