<?xml version="1.0" encoding="utf-8"?>
<!-- Generator: Adobe Illustrator 16.0.0, SVG Export Plug-In . SVG Version: 6.00 Build 0)  -->
<!DOCTYPE svg PUBLIC "-//W3C//DTD SVG 1.1//EN" "http://www.w3.org/Graphics/SVG/1.1/DTD/svg11.dtd">
<svg version="1.1" id="Layer_1" xmlns="http://www.w3.org/2000/svg" xmlns:xlink="http://www.w3.org/1999/xlink" x="0px" y="0px"
	 width="150px" height="150px" viewBox="0 0 150 150" enable-background="new 0 0 150 150" xml:space="preserve">
<g>
	<path fill="none" stroke="#122C33" stroke-width="2" stroke-linecap="round" stroke-linejoin="round" stroke-miterlimit="10" d="
		M65,16c-16.3,4.3-28.2,19.7-28.2,37.3c0,3.4,0.3,6.5,1.2,9.7"/>
	<path fill="none" stroke="#122C33" stroke-width="2" stroke-linecap="round" stroke-linejoin="round" stroke-miterlimit="10" d="
		M80,91c8.6-1.1,16.2-5.2,22-11"/>
	<path fill="none" stroke="#122C33" stroke-width="2" stroke-linecap="round" stroke-linejoin="round" stroke-miterlimit="10" d="
		M48,80c6,5.9,14.2,10.1,23,11"/>
	<path fill="none" stroke="#122C33" stroke-width="2" stroke-linecap="round" stroke-linejoin="round" stroke-miterlimit="10" d="
		M64,22c-12.2,4.2-21.1,15.6-22,29"/>
	<path fill="none" stroke="#122C33" stroke-width="2" stroke-linecap="round" stroke-linejoin="round" stroke-miterlimit="10" d="
		M53,78c4.9,4.5,11.1,7.2,18.1,8"/>
	<g>
		<g display="none">
			
				<line display="inline" fill="none" stroke="#122C33" stroke-width="2" stroke-linecap="round" stroke-linejoin="round" stroke-miterlimit="10" x1="67" y1="32.5" x2="34.1" y2="64.6"/>
			
				<line display="inline" fill="none" stroke="#122C33" stroke-width="2" stroke-linecap="round" stroke-linejoin="round" stroke-miterlimit="10" x1="36.2" y1="62.5" x2="33.4" y2="59.7"/>
			
				<line display="inline" fill="none" stroke="#122C33" stroke-width="2" stroke-linecap="round" stroke-linejoin="round" stroke-miterlimit="10" x1="46.9" y1="52" x2="45.5" y2="50.6"/>
			
				<line display="inline" fill="none" stroke="#122C33" stroke-width="2" stroke-linecap="round" stroke-linejoin="round" stroke-miterlimit="10" x1="39.8" y1="59" x2="38.4" y2="57.6"/>
			
				<line display="inline" fill="none" stroke="#122C33" stroke-width="2" stroke-linecap="round" stroke-linejoin="round" stroke-miterlimit="10" x1="54.1" y1="45.1" x2="52.7" y2="43.6"/>
			
				<line display="inline" fill="none" stroke="#122C33" stroke-width="2" stroke-linecap="round" stroke-linejoin="round" stroke-miterlimit="10" x1="61.2" y1="38.1" x2="59.8" y2="36.6"/>
			
				<line display="inline" fill="none" stroke="#122C33" stroke-width="2" stroke-linecap="round" stroke-linejoin="round" stroke-miterlimit="10" x1="43.4" y1="55.5" x2="40.6" y2="52.7"/>
			
				<line display="inline" fill="none" stroke="#122C33" stroke-width="2" stroke-linecap="round" stroke-linejoin="round" stroke-miterlimit="10" x1="50.5" y1="48.6" x2="47.7" y2="45.7"/>
			
				<line display="inline" fill="none" stroke="#122C33" stroke-width="2" stroke-linecap="round" stroke-linejoin="round" stroke-miterlimit="10" x1="57.7" y1="41.6" x2="54.9" y2="38.7"/>
			
				<line display="inline" fill="none" stroke="#122C33" stroke-width="2" stroke-linecap="round" stroke-linejoin="round" stroke-miterlimit="10" x1="64.8" y1="34.6" x2="62" y2="31.7"/>
		</g>
		<g>
			
				<ellipse fill="#5AB1BB" stroke="#122C33" stroke-width="2" stroke-linecap="round" stroke-linejoin="round" stroke-miterlimit="10" cx="76" cy="56.8" rx="4" ry="4"/>
			
				<polyline fill="#5AB1BB" stroke="#122C33" stroke-width="2" stroke-linecap="round" stroke-linejoin="round" stroke-miterlimit="10" points="
				83,129 78,66 74,66 69,148 			"/>
			
				<path fill="#5AB1BB" stroke="#122C33" stroke-width="2" stroke-linecap="round" stroke-linejoin="round" stroke-miterlimit="10" d="
				M76,49.3c-1,0-4-3-4-5c0-2,1-38.9,4-38.9s4,36.9,4,38.9C80,46.4,77,49.3,76,49.3z"/>
			
				<path fill="#5AB1BB" stroke="#122C33" stroke-width="2" stroke-linecap="round" stroke-linejoin="round" stroke-miterlimit="10" d="
				M69,60.3c0.5,0.9-0.3,4.7-2,5.7c-1.7,1-34.5,18.8-35.9,16.2C29.6,79.6,61.3,60,63,59S68.5,59.4,69,60.3z"/>
			
				<path fill="#5AB1BB" stroke="#122C33" stroke-width="2" stroke-linecap="round" stroke-linejoin="round" stroke-miterlimit="10" d="
				M83,60c-0.5,0.9-0.7,5,1,6c1.7,1,34.5,18.8,35.9,16.2C121.4,79.6,90.7,60,89,59C87.3,58,83.5,59.1,83,60z"/>
		</g>
	</g>
</g>
<g>
	<path fill="none" stroke="#122C33" stroke-width="2" stroke-linecap="round" stroke-linejoin="round" stroke-miterlimit="10" d="
		M12,127c0,0-3,1.3-7,3c-3.9,1.7-3,8-3,8h17"/>
	<g>
		<path fill="#CC9F72" stroke="#122C33" stroke-width="2" stroke-miterlimit="10" d="M30,114c0-6.6-3.4-12-10-12s-10,5.4-10,12
			s3.4,12,10,12S30,120.6,30,114z"/>
		<g>
			
				<path fill="#122C33" stroke="#122C33" stroke-width="2" stroke-linecap="round" stroke-linejoin="round" stroke-miterlimit="10" d="
				M29,109c-0.2-2.7-4-7-9-7c-4,0-10,3-10,11C19,106,27.1,112.3,29,109z"/>
		</g>
		<path fill="none" stroke="#122C33" stroke-width="2" stroke-linecap="round" stroke-linejoin="round" stroke-miterlimit="10" d="
			M16,118c0.4,1.7,2.3,3,4,3c1.7,0,3.6-1.3,4-3"/>
	</g>
</g>
<g>
	<path fill="none" stroke="#122C33" stroke-width="2" stroke-linecap="round" stroke-linejoin="round" stroke-miterlimit="10" d="
		M43,121v6l-12,4c-3,1.1-6,3.8-6,7v5h18"/>
	
		<line fill="none" stroke="#122C33" stroke-width="2" stroke-linecap="round" stroke-linejoin="round" stroke-miterlimit="10" x1="55" y1="127" x2="69" y2="131"/>
	<g>
		<path fill="#F9E4CF" stroke="#122C33" stroke-width="2" stroke-miterlimit="10" d="M61,107c0-9-4-15-12-15c-8.3,0-12,6.7-12,15
			s3.7,15,12,15S61,115.3,61,107z"/>
		
			<path fill="#D3D3D3" stroke="#122C33" stroke-width="2" stroke-linecap="round" stroke-linejoin="round" stroke-miterlimit="10" d="
			M61,106c-1,0-2.2,0-4,0c-4,0-7-2-10-5c-3,5-4,6-10,5c0,0,0-14,12-14S61,106,61,106z"/>
		
			<path display="none" fill="none" stroke="#122C33" stroke-width="2" stroke-linecap="round" stroke-linejoin="round" stroke-miterlimit="10" d="
			M61.8,104.4c-1.6,0.8-3.1,1.2-4.9,1.2c-3.7,0-8.1-2.1-9.5-4.9c-2.4,4.1-6,5.7-10.3,4.9"/>
		<path fill="none" stroke="#122C33" stroke-width="2" stroke-linecap="round" stroke-linejoin="round" stroke-miterlimit="10" d="
			M45,113c0.4,1.7,2.3,3,4,3c1.7,0,3.6-1.3,4-3"/>
	</g>
</g>
<circle fill="none" stroke="#E9AF00" stroke-width="2" stroke-linecap="round" stroke-linejoin="round" stroke-miterlimit="10" cx="10" cy="28" r="5"/>
<circle fill="none" stroke="#5AB1BB" stroke-width="2" stroke-miterlimit="10" cx="107" cy="103" r="3"/>
<path fill="#E9AF00" d="M89,1.4C89,0.6,88.4,0,87.6,0h-0.1C86.6,0,86,0.6,86,1.4v0.1C86,2.4,86.6,3,87.4,3h0.1C88.4,3,89,2.4,89,1.6
	V1.4z"/>
<path fill="#E9AF00" d="M20,65.8c0-2.1-1.7-3.8-3.8-3.8h-0.3c-2.1,0-3.8,1.7-3.8,3.8v0.3c0,2.1,1.7,3.8,3.8,3.8h0.3
	c2.1,0,3.8-1.7,3.8-3.8V65.8z"/>
<g>
	<path fill="#E0E01B" d="M124,146c0,1.1-4.5,2-10,2c-5.5,0-10-0.9-10-2s4.5-2,10-2C119.5,144,124,144.9,124,146z"/>
	<path fill="none" stroke="#122C33" stroke-width="2" stroke-linecap="round" stroke-linejoin="round" stroke-miterlimit="10" d="
		M124,147c0,1.1-4.5,2-10,2c-5.5,0-10-0.9-10-2"/>
	<path fill="#E0E01B" d="M124,142c0,1.1-4.5,2-10,2c-5.5,0-10-0.9-10-2s4.5-2,10-2C119.5,140,124,140.9,124,142z"/>
	<path fill="none" stroke="#122C33" stroke-width="2" stroke-linecap="round" stroke-linejoin="round" stroke-miterlimit="10" d="
		M124,143c0,1.1-4.5,2-10,2c-5.5,0-10-0.9-10-2"/>
	<g>
		<path fill="#E0E01B" d="M124,138c0,1.1-4.5,2-10,2c-5.5,0-10-0.9-10-2s4.5-2,10-2C119.5,136,124,136.9,124,138z"/>
		<path fill="none" stroke="#122C33" stroke-width="2" stroke-linecap="round" stroke-linejoin="round" stroke-miterlimit="10" d="
			M124,139c0,1.1-4.5,2-10,2c-5.5,0-10-0.9-10-2"/>
	</g>
	<g>
		<path fill="#E0E01B" d="M124,134c0,1.1-4.5,2-10,2c-5.5,0-10-0.9-10-2s4.5-2,10-2C119.5,132,124,132.9,124,134z"/>
		<path fill="none" stroke="#122C33" stroke-width="2" stroke-linecap="round" stroke-linejoin="round" stroke-miterlimit="10" d="
			M124,135c0,1.1-4.5,2-10,2c-5.5,0-10-0.9-10-2"/>
	</g>
	<g>
		<path fill="#E0E01B" d="M124,130c0,1.1-4.5,2-10,2c-5.5,0-10-0.9-10-2s4.5-2,10-2C119.5,128,124,128.9,124,130z"/>
		<path fill="none" stroke="#122C33" stroke-width="2" stroke-linecap="round" stroke-linejoin="round" stroke-miterlimit="10" d="
			M124,131c0,1.1-4.5,2-10,2c-5.5,0-10-0.9-10-2"/>
	</g>
	<g>
		<path fill="#E0E01B" d="M124,126c0,1.1-4.5,2-10,2c-5.5,0-10-0.9-10-2s4.5-2,10-2C119.5,124,124,124.9,124,126z"/>
		<path fill="none" stroke="#122C33" stroke-width="2" stroke-linecap="round" stroke-linejoin="round" stroke-miterlimit="10" d="
			M124,127c0,1.1-4.5,2-10,2c-5.5,0-10-0.9-10-2"/>
	</g>
	
		<path fill="#E0E01B" stroke="#122C33" stroke-width="2" stroke-linecap="round" stroke-linejoin="round" stroke-miterlimit="10" d="
		M124,123c0,1.1-4.5,2-10,2c-5.5,0-10-0.9-10-2s4.5-2,10-2C119.5,121,124,121.9,124,123z"/>
</g>
<g>
	<path fill="#E0E01B" d="M144,146c0,1.1-4.5,2-10,2c-5.5,0-10-0.9-10-2s4.5-2,10-2C139.5,144,144,144.9,144,146z"/>
	<path fill="none" stroke="#122C33" stroke-width="2" stroke-linecap="round" stroke-linejoin="round" stroke-miterlimit="10" d="
		M144,147c0,1.1-4.5,2-10,2c-5.5,0-10-0.9-10-2"/>
	<path fill="#E0E01B" d="M144,142c0,1.1-4.5,2-10,2c-5.5,0-10-0.9-10-2s4.5-2,10-2C139.5,140,144,140.9,144,142z"/>
	<path fill="none" stroke="#122C33" stroke-width="2" stroke-linecap="round" stroke-linejoin="round" stroke-miterlimit="10" d="
		M144,143c0,1.1-4.5,2-10,2c-5.5,0-10-0.9-10-2"/>
	<g>
		<path fill="#E0E01B" d="M144,138c0,1.1-4.5,2-10,2c-5.5,0-10-0.9-10-2s4.5-2,10-2C139.5,136,144,136.9,144,138z"/>
		<path fill="none" stroke="#122C33" stroke-width="2" stroke-linecap="round" stroke-linejoin="round" stroke-miterlimit="10" d="
			M144,139c0,1.1-4.5,2-10,2c-5.5,0-10-0.9-10-2"/>
	</g>
	<g>
		<path fill="#E0E01B" d="M144,134c0,1.1-4.5,2-10,2c-5.5,0-10-0.9-10-2s4.5-2,10-2C139.5,132,144,132.9,144,134z"/>
		<path fill="none" stroke="#122C33" stroke-width="2" stroke-linecap="round" stroke-linejoin="round" stroke-miterlimit="10" d="
			M144,135c0,1.1-4.5,2-10,2c-5.5,0-10-0.9-10-2"/>
	</g>
	<g>
		<path fill="#E0E01B" d="M144,130c0,1.1-4.5,2-10,2c-5.5,0-10-0.9-10-2s4.5-2,10-2C139.5,128,144,128.9,144,130z"/>
		<path fill="none" stroke="#122C33" stroke-width="2" stroke-linecap="round" stroke-linejoin="round" stroke-miterlimit="10" d="
			M144,131c0,1.1-4.5,2-10,2c-5.5,0-10-0.9-10-2"/>
	</g>
	<g>
		<path fill="#E0E01B" d="M144,126c0,1.1-4.5,2-10,2c-5.5,0-10-0.9-10-2s4.5-2,10-2C139.5,124,144,124.9,144,126z"/>
		<path fill="none" stroke="#122C33" stroke-width="2" stroke-linecap="round" stroke-linejoin="round" stroke-miterlimit="10" d="
			M144,127c0,1.1-4.5,2-10,2c-5.5,0-10-0.9-10-2"/>
	</g>
	<g>
		<path fill="#E0E01B" d="M144,122c0,1.1-4.5,2-10,2c-5.5,0-10-0.9-10-2s4.5-2,10-2C139.5,120,144,120.9,144,122z"/>
		<path fill="none" stroke="#122C33" stroke-width="2" stroke-linecap="round" stroke-linejoin="round" stroke-miterlimit="10" d="
			M144,123c0,1.1-4.5,2-10,2c-5.5,0-10-0.9-10-2"/>
	</g>
	<g>
		<path fill="#E0E01B" d="M144,118c0,1.1-4.5,2-10,2c-5.5,0-10-0.9-10-2s4.5-2,10-2C139.5,116,144,116.9,144,118z"/>
		<path fill="none" stroke="#122C33" stroke-width="2" stroke-linecap="round" stroke-linejoin="round" stroke-miterlimit="10" d="
			M144,119c0,1.1-4.5,2-10,2c-5.5,0-10-0.9-10-2"/>
	</g>
	
		<path fill="#E0E01B" stroke="#122C33" stroke-width="2" stroke-linecap="round" stroke-linejoin="round" stroke-miterlimit="10" d="
		M144,103c0,1.1-4.5,2-10,2c-5.5,0-10-0.9-10-2s4.5-2,10-2C139.5,101,144,101.9,144,103z"/>
	
		<path fill="#E0E01B" stroke="#122C33" stroke-width="2" stroke-linecap="round" stroke-linejoin="round" stroke-miterlimit="10" d="
		M144,115c0,1.1-4.5,2-10,2c-5.5,0-10-0.9-10-2s4.5-2,10-2C139.5,113,144,113.9,144,115z"/>
	
		<line fill="none" stroke="#122C33" stroke-width="2" stroke-linecap="round" stroke-linejoin="round" stroke-miterlimit="10" x1="127" y1="98" x2="127" y2="90"/>
	
		<line fill="none" stroke="#122C33" stroke-width="2" stroke-linecap="round" stroke-linejoin="round" stroke-miterlimit="10" x1="141" y1="97" x2="141" y2="85"/>
	
		<line fill="none" stroke="#122C33" stroke-width="2" stroke-linecap="round" stroke-linejoin="round" stroke-miterlimit="10" x1="134" y1="89" x2="134" y2="75"/>
	
		<line fill="none" stroke="#122C33" stroke-width="2" stroke-linecap="round" stroke-linejoin="round" stroke-miterlimit="10" x1="134" y1="93" x2="134" y2="96"/>
</g>
<g>
	<path fill="#E0E01B" d="M104,146c0,1.1-4.5,2-10,2c-5.5,0-10-0.9-10-2s4.5-2,10-2C99.5,144,104,144.9,104,146z"/>
	<path fill="none" stroke="#122C33" stroke-width="2" stroke-linecap="round" stroke-linejoin="round" stroke-miterlimit="10" d="
		M104,147c0,1.1-4.5,2-10,2c-5.5,0-10-0.9-10-2"/>
	<path fill="#E0E01B" d="M104,142c0,1.1-4.5,2-10,2c-5.5,0-10-0.9-10-2s4.5-2,10-2C99.5,140,104,140.9,104,142z"/>
	<path fill="none" stroke="#122C33" stroke-width="2" stroke-linecap="round" stroke-linejoin="round" stroke-miterlimit="10" d="
		M104,143c0,1.1-4.5,2-10,2c-5.5,0-10-0.9-10-2"/>
	<path fill="#E0E01B" d="M104,138c0,1.1-4.5,2-10,2c-5.5,0-10-0.9-10-2s4.5-2,10-2C99.5,136,104,136.9,104,138z"/>
	<path fill="none" stroke="#122C33" stroke-width="2" stroke-linecap="round" stroke-linejoin="round" stroke-miterlimit="10" d="
		M104,139c0,1.1-4.5,2-10,2c-5.5,0-10-0.9-10-2"/>
	
		<path fill="#E0E01B" stroke="#122C33" stroke-width="2" stroke-linecap="round" stroke-linejoin="round" stroke-miterlimit="10" d="
		M104,135c0,1.1-4.5,2-10,2c-5.5,0-10-0.9-10-2s4.5-2,10-2C99.5,133,104,133.9,104,135z"/>
</g>
<g>
	
		<path fill="#E9AF00" stroke="#122C33" stroke-width="2" stroke-linecap="round" stroke-linejoin="round" stroke-miterlimit="10" d="
		M101.7,35c2.4,5.6,7.9,9.5,14.3,9.5c8.6,0,15.5-6.9,15.5-15.5c0-8.6-6.9-15.5-15.5-15.5c-8.6,0-15.5,6.9-15.5,15.5
		C100.5,31.1,100.9,33.2,101.7,35"/>
	
		<line fill="none" stroke="#122C33" stroke-width="2" stroke-linecap="round" stroke-linejoin="round" stroke-miterlimit="10" x1="90" y1="29" x2="96" y2="29"/>
	
		<line fill="none" stroke="#122C33" stroke-width="2" stroke-linecap="round" stroke-linejoin="round" stroke-miterlimit="10" x1="136" y1="29" x2="142" y2="29"/>
	
		<line fill="none" stroke="#122C33" stroke-width="2" stroke-linecap="round" stroke-linejoin="round" stroke-miterlimit="10" x1="116" y1="3" x2="116" y2="9"/>
	
		<line fill="none" stroke="#122C33" stroke-width="2" stroke-linecap="round" stroke-linejoin="round" stroke-miterlimit="10" x1="116" y1="49" x2="116" y2="55"/>
	<g>
		
			<line fill="none" stroke="#122C33" stroke-width="2" stroke-linecap="round" stroke-linejoin="round" stroke-miterlimit="10" x1="99.1" y1="12" x2="102" y2="15"/>
		
			<line fill="none" stroke="#122C33" stroke-width="2" stroke-linecap="round" stroke-linejoin="round" stroke-miterlimit="10" x1="130" y1="43" x2="133.1" y2="46"/>
		
			<line fill="none" stroke="#122C33" stroke-width="2" stroke-linecap="round" stroke-linejoin="round" stroke-miterlimit="10" x1="133" y1="11.9" x2="130" y2="15"/>
		
			<line fill="none" stroke="#122C33" stroke-width="2" stroke-linecap="round" stroke-linejoin="round" stroke-miterlimit="10" x1="101.9" y1="43" x2="99" y2="46"/>
	</g>
	<path fill="none" stroke="#122C33" stroke-width="2" stroke-linecap="round" stroke-linejoin="round" stroke-miterlimit="10" d="
		M112,29c0,2.2,1.8,4,4,4s4-1.8,4-4"/>
</g>
<circle fill="#5AB1BB" cx="31" cy="17" r="3"/>
<g>
	
		<line fill="none" stroke="#5AB1BB" stroke-width="2" stroke-linecap="round" stroke-linejoin="round" stroke-miterlimit="10" x1="142" y1="60" x2="138" y2="64"/>
	
		<line fill="none" stroke="#5AB1BB" stroke-width="2" stroke-linecap="round" stroke-linejoin="round" stroke-miterlimit="10" x1="142" y1="64" x2="138" y2="60"/>
</g>
<g>
	
		<line fill="none" stroke="#122C33" stroke-width="2" stroke-linecap="round" stroke-linejoin="round" stroke-miterlimit="10" x1="47" y1="1" x2="47" y2="7"/>
	
		<line fill="none" stroke="#122C33" stroke-width="2" stroke-linecap="round" stroke-linejoin="round" stroke-miterlimit="10" x1="50" y1="4" x2="44" y2="4"/>
</g>
</svg>
