<?xml version="1.0" encoding="utf-8"?>
<!-- Generator: Adobe Illustrator 16.0.0, SVG Export Plug-In . SVG Version: 6.00 Build 0)  -->
<!DOCTYPE svg PUBLIC "-//W3C//DTD SVG 1.1//EN" "http://www.w3.org/Graphics/SVG/1.1/DTD/svg11.dtd">
<svg version="1.1" id="Layer_1" xmlns="http://www.w3.org/2000/svg" xmlns:xlink="http://www.w3.org/1999/xlink" x="0px" y="0px"
	 width="150px" height="150px" viewBox="0 0 150 150" enable-background="new 0 0 150 150" xml:space="preserve">
<g>
	<polygon fill="#5AB1BB" points="85,102 82,64 79,64 74,119 	"/>
	<g>
		<path fill="none" stroke="#122C33" stroke-width="2" stroke-linecap="round" stroke-linejoin="round" stroke-miterlimit="10" d="
			M70,19c-14.5,3.6-25,16.4-25,32c0,2.9,0.3,6.3,1,9"/>
	</g>
	<g display="none">
		
			<line display="inline" fill="none" stroke="#122C33" stroke-width="2" stroke-linecap="round" stroke-linejoin="round" stroke-miterlimit="10" x1="71" y1="30.5" x2="38.1" y2="62.6"/>
		
			<line display="inline" fill="none" stroke="#122C33" stroke-width="2" stroke-linecap="round" stroke-linejoin="round" stroke-miterlimit="10" x1="40.2" y1="60.5" x2="37.4" y2="57.7"/>
		
			<line display="inline" fill="none" stroke="#122C33" stroke-width="2" stroke-linecap="round" stroke-linejoin="round" stroke-miterlimit="10" x1="50.9" y1="50" x2="49.5" y2="48.6"/>
		
			<line display="inline" fill="none" stroke="#122C33" stroke-width="2" stroke-linecap="round" stroke-linejoin="round" stroke-miterlimit="10" x1="43.8" y1="57" x2="42.4" y2="55.6"/>
		
			<line display="inline" fill="none" stroke="#122C33" stroke-width="2" stroke-linecap="round" stroke-linejoin="round" stroke-miterlimit="10" x1="58.1" y1="43.1" x2="56.7" y2="41.6"/>
		
			<line display="inline" fill="none" stroke="#122C33" stroke-width="2" stroke-linecap="round" stroke-linejoin="round" stroke-miterlimit="10" x1="65.2" y1="36.1" x2="63.8" y2="34.6"/>
		
			<line display="inline" fill="none" stroke="#122C33" stroke-width="2" stroke-linecap="round" stroke-linejoin="round" stroke-miterlimit="10" x1="47.4" y1="53.5" x2="44.6" y2="50.7"/>
		
			<line display="inline" fill="none" stroke="#122C33" stroke-width="2" stroke-linecap="round" stroke-linejoin="round" stroke-miterlimit="10" x1="54.5" y1="46.6" x2="51.7" y2="43.7"/>
		
			<line display="inline" fill="none" stroke="#122C33" stroke-width="2" stroke-linecap="round" stroke-linejoin="round" stroke-miterlimit="10" x1="61.7" y1="39.6" x2="58.9" y2="36.7"/>
		
			<line display="inline" fill="none" stroke="#122C33" stroke-width="2" stroke-linecap="round" stroke-linejoin="round" stroke-miterlimit="10" x1="68.8" y1="32.6" x2="66" y2="29.7"/>
	</g>
	
		<polyline fill="none" stroke="#122C33" stroke-width="2" stroke-linecap="round" stroke-linejoin="round" stroke-miterlimit="10" points="
		67,17 70,19 69,22 	"/>
	<g>
		
			<ellipse fill="none" stroke="#122C33" stroke-width="2" stroke-linecap="round" stroke-linejoin="round" stroke-miterlimit="10" cx="80" cy="54.8" rx="4" ry="4"/>
		
			<polyline fill="none" stroke="#122C33" stroke-width="2" stroke-linecap="round" stroke-linejoin="round" stroke-miterlimit="10" points="
			73,132 79,64 82,64 87,128 		"/>
		
			<path fill="#5AB1BB" stroke="#122C33" stroke-width="2" stroke-linecap="round" stroke-linejoin="round" stroke-miterlimit="10" d="
			M80,47.3c-1,0-4-3-4-5c0-2,1-38.9,4-38.9s4,36.9,4,38.9C84,44.4,81,47.3,80,47.3z"/>
		
			<path fill="#5AB1BB" stroke="#122C33" stroke-width="2" stroke-linecap="round" stroke-linejoin="round" stroke-miterlimit="10" d="
			M73,58c0.5,0.9,0,5-2,6c-1.8,0.9-34.5,18.8-35.9,16.2C33.6,77.6,65.2,57.9,67,57C69,56,72.5,57.1,73,58z"/>
		
			<path fill="#5AB1BB" stroke="#122C33" stroke-width="2" stroke-linecap="round" stroke-linejoin="round" stroke-miterlimit="10" d="
			M87,58c-0.5,0.9-1,4,1,5c1.8,0.9,34.5,19.8,35.9,17.2C125.4,77.6,93.8,57.9,92,57C90,56,87.5,57.1,87,58z"/>
	</g>
</g>
<g>
	
		<polyline fill="none" stroke="#122C33" stroke-width="2" stroke-linecap="round" stroke-linejoin="round" stroke-miterlimit="10" points="
		95,135 89,136 90,130 	"/>
	<g>
		
			<rect x="89.7" y="115.5" transform="matrix(0.7071 -0.7071 0.7071 0.7071 -53.099 109.8076)" fill="none" stroke="#122C33" stroke-width="2" stroke-linecap="round" stroke-linejoin="round" stroke-miterlimit="10" width="32.5" height="7.1"/>
	</g>
	
		<line fill="none" stroke="#122C33" stroke-width="2" stroke-linecap="round" stroke-linejoin="round" stroke-miterlimit="10" x1="111" y1="109" x2="116" y2="114"/>
</g>
<g>
	<path fill="none" stroke="#122C33" stroke-width="2" stroke-linecap="round" stroke-linejoin="round" stroke-miterlimit="10" d="
		M8,125c0,0-0.2,0.3-4,2c-3.7,1.7-3,8-3,8h18"/>
	<path fill="none" stroke="#122C33" stroke-width="2" stroke-linecap="round" stroke-linejoin="round" stroke-miterlimit="10" d="
		M26,117c0,0-1,3-2,3c0,0-3,5-7,5s-7-5-7-5c-1,0-2-3-2-3"/>
	
		<path fill="#E0E01B" stroke="#122C33" stroke-width="2" stroke-linecap="round" stroke-linejoin="round" stroke-miterlimit="10" d="
		M22,104l-2,5l-1-7c0,0,0-1-2-1s-2,1-2,1l-1,7l-2-5c-4,4-5,10-5,10h10h9.6C26.6,114,26,108,22,104z"/>
</g>
<g>
	<path fill="#E0E01B" d="M149,144c0,1.1-4.5,2-10,2c-5.5,0-10-0.9-10-2s4.5-2,10-2C144.5,142,149,142.9,149,144z"/>
	<path fill="none" stroke="#122C33" stroke-width="2" stroke-linecap="round" stroke-linejoin="round" stroke-miterlimit="10" d="
		M149,145c0,1.1-4.5,2-10,2c-5.5,0-10-0.9-10-2"/>
	<path fill="#E0E01B" d="M149,140c0,1.1-4.5,2-10,2c-5.5,0-10-0.9-10-2s4.5-2,10-2C144.5,138,149,138.9,149,140z"/>
	<path fill="none" stroke="#122C33" stroke-width="2" stroke-linecap="round" stroke-linejoin="round" stroke-miterlimit="10" d="
		M149,141c0,1.1-4.5,2-10,2c-5.5,0-10-0.9-10-2"/>
	<g>
		<path fill="#E0E01B" d="M149,136c0,1.1-4.5,2-10,2c-5.5,0-10-0.9-10-2s4.5-2,10-2C144.5,134,149,134.9,149,136z"/>
		<path fill="none" stroke="#122C33" stroke-width="2" stroke-linecap="round" stroke-linejoin="round" stroke-miterlimit="10" d="
			M149,137c0,1.1-4.5,2-10,2c-5.5,0-10-0.9-10-2"/>
	</g>
	<g>
		<path fill="#E0E01B" d="M149,132c0,1.1-4.5,2-10,2c-5.5,0-10-0.9-10-2s4.5-2,10-2C144.5,130,149,130.9,149,132z"/>
		<path fill="none" stroke="#122C33" stroke-width="2" stroke-linecap="round" stroke-linejoin="round" stroke-miterlimit="10" d="
			M149,133c0,1.1-4.5,2-10,2c-5.5,0-10-0.9-10-2"/>
	</g>
	<g>
		<path fill="#E0E01B" d="M149,128c0,1.1-4.5,2-10,2c-5.5,0-10-0.9-10-2s4.5-2,10-2C144.5,126,149,126.9,149,128z"/>
		<path fill="none" stroke="#122C33" stroke-width="2" stroke-linecap="round" stroke-linejoin="round" stroke-miterlimit="10" d="
			M149,129c0,1.1-4.5,2-10,2c-5.5,0-10-0.9-10-2"/>
	</g>
	<g>
		<path fill="#E0E01B" d="M149,124c0,1.1-4.5,2-10,2c-5.5,0-10-0.9-10-2s4.5-2,10-2C144.5,122,149,122.9,149,124z"/>
		<path fill="none" stroke="#122C33" stroke-width="2" stroke-linecap="round" stroke-linejoin="round" stroke-miterlimit="10" d="
			M149,125c0,1.1-4.5,2-10,2c-5.5,0-10-0.9-10-2"/>
	</g>
	
		<path fill="#E0E01B" stroke="#122C33" stroke-width="2" stroke-linecap="round" stroke-linejoin="round" stroke-miterlimit="10" d="
		M149,121c0,1.1-4.5,2-10,2c-5.5,0-10-0.9-10-2s4.5-2,10-2C144.5,119,149,119.9,149,121z"/>
</g>
<g>
	<path fill="#F9E4CF" stroke="#122C33" stroke-width="2" stroke-miterlimit="10" d="M64,108c0-11-6-20-17-20s-17,9-17,20s6,20,17,20
		S64,119,64,108z"/>
	<g>
		<path fill="#F7931E" stroke="#122C33" stroke-width="2" stroke-miterlimit="10" d="M47,87"/>
		<path display="none" fill="#FFE1C0" stroke="#122C33" stroke-width="2" stroke-miterlimit="10" d="M47,87"/>
		
			<path fill="#E2E252" stroke="#122C33" stroke-width="2" stroke-linecap="round" stroke-linejoin="round" stroke-miterlimit="10" d="
			M30,106c6,2,23-2,26-7c2,4,5,3,7,2c-1-5-6-13-16-13S31,96,30,106z"/>
	</g>
	<path fill="none" stroke="#122C33" stroke-width="2" stroke-linecap="round" stroke-linejoin="round" stroke-miterlimit="10" d="
		M78,147c0,0,0.7-11.9-6-15c-6.7-3.1-11-5-11-5s-5.3,5-12,5"/>
	
		<line fill="none" stroke="#122C33" stroke-width="2" stroke-linecap="round" stroke-linejoin="round" stroke-miterlimit="10" x1="35" y1="147" x2="64" y2="147"/>
	<path fill="none" stroke="#122C33" stroke-width="2" stroke-linecap="round" stroke-linejoin="round" stroke-miterlimit="10" d="
		M35,128c0,0-3,1-8,4c-6.2,3.7-6,14-6,14"/>
</g>
<path fill="#C50545" stroke="#122C33" stroke-width="2" stroke-linecap="round" stroke-linejoin="round" stroke-miterlimit="10" d="
	M139,109.9c0,0,10-6,10-13.5c0-8.3-10-5.3-10-1.5c0-3.8-10-6.8-10,1.5C129,103.9,139,109.9,139,109.9z"/>
<g>
	<path fill="#E0E01B" d="M129,144c0,1.1-4.5,2-10,2c-5.5,0-10-0.9-10-2s4.5-2,10-2C124.5,142,129,142.9,129,144z"/>
	<path fill="none" stroke="#122C33" stroke-width="2" stroke-linecap="round" stroke-linejoin="round" stroke-miterlimit="10" d="
		M129,145c0,1.1-4.5,2-10,2c-5.5,0-10-0.9-10-2"/>
	<path fill="#E0E01B" d="M129,140c0,1.1-4.5,2-10,2c-5.5,0-10-0.9-10-2s4.5-2,10-2C124.5,138,129,138.9,129,140z"/>
	<path fill="none" stroke="#122C33" stroke-width="2" stroke-linecap="round" stroke-linejoin="round" stroke-miterlimit="10" d="
		M129,141c0,1.1-4.5,2-10,2c-5.5,0-10-0.9-10-2"/>
	<path fill="#E0E01B" d="M129,136c0,1.1-4.5,2-10,2c-5.5,0-10-0.9-10-2s4.5-2,10-2C124.5,134,129,134.9,129,136z"/>
	<path fill="none" stroke="#122C33" stroke-width="2" stroke-linecap="round" stroke-linejoin="round" stroke-miterlimit="10" d="
		M129,137c0,1.1-4.5,2-10,2c-5.5,0-10-0.9-10-2"/>
	
		<path fill="#E0E01B" stroke="#122C33" stroke-width="2" stroke-linecap="round" stroke-linejoin="round" stroke-miterlimit="10" d="
		M129,133c0,1.1-4.5,2-10,2c-5.5,0-10-0.9-10-2s4.5-2,10-2C124.5,131,129,131.9,129,133z"/>
</g>
</svg>
