<?xml version="1.0" encoding="utf-8"?>
<!-- Generator: Adobe Illustrator 17.1.0, SVG Export Plug-In . SVG Version: 6.00 Build 0)  -->
<!DOCTYPE svg PUBLIC "-//W3C//DTD SVG 1.1//EN" "http://www.w3.org/Graphics/SVG/1.1/DTD/svg11.dtd">
<svg version="1.1" id="Calque_1" xmlns="http://www.w3.org/2000/svg" xmlns:xlink="http://www.w3.org/1999/xlink" x="0px" y="0px"
	 viewBox="0 0 92 38" enable-background="new 0 0 92 38" xml:space="preserve">
<g>
	<path fill="#32332C" d="M1,15.8V4.4h10.1v3.1H4.6v3.1h5.9v3.1H4.6v1.5c0,1.3,0.3,1.8,1.6,1.8h5.2V20H4.9C2.3,20,1,18.4,1,15.8
		 M5.6,3.3H3.3V3l2-2.5h3.8v0.2L5.6,3.3z"/>
	<polygon fill="#32332C" points="14.4,4.4 17.7,4.4 23.5,13.6 23.5,4.4 27.1,4.4 27.1,20 23.9,20 18,10.7 18,20 14.4,20 	"/>
	<path fill="#32332C" d="M30.4,15.8V4.4h10.1v3.1H34v3.1h5.9v3.1H34v1.5c0,1.3,0.3,1.8,1.6,1.8h5.2V20h-6.5
		C31.7,20,30.4,18.4,30.4,15.8"/>
	<path fill="#32332C" d="M43.8,4.4h5.7c3.6,0,5.9,1.1,5.9,5.2c0,2.5-1.2,3.8-2.5,4.6c1.6,1.3,3.4,4.7,3.5,5.7V20h-3.9
		c-0.3-0.9-1.5-3.8-2.9-4.7h-2.2V20h-3.6V4.4z M48.8,12.4c2,0,2.8-0.6,2.8-2.6c0-2-0.8-2.3-2.8-2.3h-1.5v4.9H48.8z"/>
	<path fill="#32332C" d="M57.3,13v-1.6c0-5,3.8-7.2,8.3-7.2c1.6,0,3.3,0.3,4.9,0.8v3.1h-0.2c-1.5-0.6-3.5-0.8-4.9-0.8
		c-2.6,0-4.4,1.5-4.4,4.1V13c0,2.4,1.5,4.1,3.9,4.1h0.8c0.4,0,1.1-0.1,1.5-0.1v-2.5H65v-3.1h5.6v7.9c-0.8,0.3-2.8,0.9-4.7,0.9H65
		C60.4,20.2,57.3,17.7,57.3,13"/>
	<rect x="73.6" y="4.4" fill="#32332C" width="3.6" height="15.7"/>
	<path fill="#32332C" d="M80.5,15.8V4.4h10.1v3.1h-6.5v3.1H90v3.1h-5.9v1.5c0,1.3,0.3,1.8,1.6,1.8h5.2V20h-6.5
		C81.8,20,80.5,18.4,80.5,15.8"/>
	<path fill="#32332C" d="M1,24.6h4.7c2.9,0,4.8,1.3,4.8,4.7c0,3.6-2.3,4.9-5.1,4.9H3.9v3.2H1V24.6z M5.1,31.6c1.6,0,2.3-0.5,2.3-2.4
		c0-1.7-0.7-2.1-2.3-2.1H3.9v4.5H5.1z"/>
	<path fill="#32332C" d="M11.2,37.2c0.5-2.3,0.9-3.5,1.5-5.3c0.8-2.7,2.1-6.3,2.7-7.3h3.6c0.5,1,1.9,4.6,2.7,7.3
		c0.5,1.8,0.9,3.1,1.5,5.3v0.1h-3.2c-0.2-0.8-0.4-1.8-0.6-2.8h-4.4c-0.3,1-0.5,2-0.7,2.8h-2.9V37.2z M15.5,32h3.1
		c-0.6-2.2-1.2-4.3-1.5-5.1C16.7,27.7,16.1,29.8,15.5,32"/>
	<path fill="#32332C" d="M24.8,24.6h4.7c2.9,0,4.8,0.9,4.8,4.3c0,2-1,3.1-2.1,3.7c1.3,1.1,2.7,3.8,2.9,4.7v0.1h-3.2
		c-0.2-0.7-1.3-3.1-2.3-3.8h-1.8v3.8h-2.9V24.6z M28.9,31.1c1.6,0,2.3-0.5,2.3-2.1s-0.7-1.9-2.3-1.9h-1.2v4H28.9z"/>
	<polygon fill="#32332C" points="38.9,27.1 35.4,27.1 35.4,24.6 45.3,24.6 45.3,27.1 41.8,27.1 41.8,37.4 38.9,37.4 	"/>
	<path fill="#32332C" d="M45.5,37.2c0.5-2.3,0.9-3.5,1.5-5.3c0.8-2.7,2.1-6.3,2.7-7.3h3.6c0.5,1,1.9,4.6,2.7,7.3
		c0.5,1.8,0.9,3.1,1.5,5.3v0.1h-3.2c-0.2-0.8-0.4-1.8-0.6-2.8h-4.4c-0.3,1-0.5,2-0.7,2.8h-2.9V37.2z M49.7,32h3.1
		c-0.6-2.2-1.2-4.3-1.5-5.1C51,27.7,50.4,29.8,49.7,32"/>
	<path fill="#32332C" d="M58.4,31.6v-1.3c0-4.1,3.1-5.9,6.8-5.9c1.3,0,2.7,0.2,4,0.7v2.5h-0.1c-1.3-0.5-2.9-0.7-4-0.7
		c-2.1,0-3.6,1.2-3.6,3.3v1.3c0,1.9,1.3,3.3,3.2,3.3h0.7c0.3,0,0.9-0.1,1.2-0.1v-2h-1.9v-2.5h4.5v6.5c-0.7,0.3-2.3,0.7-3.9,0.7h-0.7
		C60.9,37.5,58.4,35.4,58.4,31.6"/>
	<path fill="#32332C" d="M71.7,33.9v-9.3H80v2.5h-5.3v2.5h4.8v2.5h-4.8v1.2c0,1.1,0.3,1.5,1.3,1.5h4.3v2.5h-5.3
		C72.8,37.4,71.7,36,71.7,33.9 M75.5,23.8h-1.9v-0.2l1.7-2h3.1v0.2L75.5,23.8z"/>
	<path fill="#32332C" d="M82.6,33.9v-9.3h8.3v2.5h-5.3v2.5h4.8v2.5h-4.8v1.2c0,1.1,0.3,1.5,1.3,1.5h4.3v2.5h-5.3
		C83.7,37.4,82.6,36,82.6,33.9"/>
</g>
</svg>
